Coordinates
version=1
nRows=16
nColumns=40
inDegrees=yes

Units are S.I. units (second, meters, Newtons, ...)
Angles are in degrees.

endheader
time	pelvis_tilt	pelvis_list	pelvis_rotation	pelvis_tx	pelvis_ty	pelvis_tz	hip_flexion_r	hip_adduction_r	hip_rotation_r	knee_angle_r	knee_angle_r_beta	ankle_angle_r	subtalar_angle_r	mtp_angle_r	hip_flexion_l	hip_adduction_l	hip_rotation_l	knee_angle_l	knee_angle_l_beta	ankle_angle_l	subtalar_angle_l	mtp_angle_l	lumbar_extension	lumbar_bending	lumbar_rotation	arm_flex_r	arm_add_r	arm_rot_r	elbow_flex_r	pro_sup_r	wrist_flex_r	wrist_dev_r	arm_flex_l	arm_add_l	arm_rot_l	elbow_flex_l	pro_sup_l	wrist_flex_l	wrist_dev_l
     20.26000000	     -5.48706697	     -3.91565728	      0.48157387	      0.80171663	      0.93056722	      0.53629964	     15.28765876	      2.78433562	    -15.85316462	     16.76084062	     16.76084062	      9.13178619	      1.23613709	     -4.21655881	     28.49268339	    -11.72299481	     -1.87752657	     51.77282873	     51.77282873	     13.21800371	    -18.67759239	     14.69805090	    -10.86184693	      7.64311097	      1.76116577	     20.29543799	    -20.02783654	     -4.27693153	     51.65940852	     45.05816745	      0.00000000	      0.00000000	      1.37334656	     -8.05591819	      2.22986891	     29.09322188	     44.93296259	      0.00000000	      0.00000000
     20.27257143	     -5.64597842	     -3.83775828	      0.80068488	      0.79976838	      0.93061067	      0.53622172	     14.91899836	      2.74196347	    -15.94575251	     16.39207484	     16.39207484	      9.37127317	      1.15898765	     -4.34919896	     29.39875336	    -11.46913738	     -1.67780766	     49.15987681	     49.15987681	     13.36296325	    -18.66910634	     14.79555539	    -10.78643222	      7.59136253	      1.74050101	     22.09529608	    -20.25032446	     -4.46587374	     52.92324057	     45.03682080	      0.00000000	      0.00000000	      0.30285659	     -7.91813423	      2.33107369	     28.56935420	     44.91378338	      0.00000000	      0.00000000
     20.28514286	     -5.78115376	     -3.80161494	      1.12606046	      0.79788252	      0.93063259	      0.53610790	     14.48032763	      2.75405109	    -16.06118227	     15.93491859	     15.93491859	      9.57404050	      1.11136127	     -4.52707307	     30.09686478	    -11.20810875	     -1.45987450	     46.25492728	     46.25492728	     13.33980218	    -18.57712350	     14.79077737	    -10.74980863	      7.61220616	      1.70273886	     23.87156703	    -20.50080765	     -4.63036513	     54.46979481	     45.00416256	      0.00000000	      0.00000000	     -0.84885117	     -7.78469796	      2.44843295	     28.21721500	     44.88858974	      0.00000000	      0.00000000
     20.29771429	     -5.93291454	     -3.80087025	      1.42761654	      0.79600258	      0.93055147	      0.53599296	     14.10228802	      2.79724211	    -16.17833768	     15.54514343	     15.54514343	      9.76338098	      1.05736002	     -4.72763863	     30.67160964	    -10.93267396	     -1.19799776	     43.17330258	     43.17330258	     13.20596054	    -18.38179878	     14.82116357	    -10.69528138	      7.64560726	      1.77918231	     25.56804324	    -20.85828824	     -4.80193182	     55.96739355	     44.97233620	      0.00000000	      0.00000000	     -1.94433309	     -7.63618987	      2.56428584	     27.99234651	     44.86090685	      0.00000000	      0.00000000
     20.31028571	     -6.00069184	     -3.82189157	      1.76517373	      0.79421545	      0.93055063	      0.53575775	     13.57606748	      2.86721272	    -16.35686542	     15.03634290	     15.03634290	      9.86524244	      1.07544904	     -5.11587707	     31.00045852	    -10.58782955	     -0.81399129	     39.89232758	     39.89232758	     12.83777759	    -18.16456642	     14.43471645	    -10.78445061	      7.75209432	      1.57705268	     27.17583682	    -20.94505734	     -4.89437406	     58.25364172	     44.91349586	      0.00000000	      0.00000000	     -3.21153846	     -7.59084411	      2.76725485	     27.96059906	     44.82200925	      0.00000000	      0.00000000
     20.32285714	     -6.26784803	     -4.04823250	      2.06172433	      0.79229820	      0.92993350	      0.53558580	     13.50240751	      3.09540402	    -16.54810007	     14.96051088	     14.96051088	     10.16024806	      0.94729938	     -5.29807289	     31.71034316	    -10.50972740	     -0.47420066	     36.98426529	     36.98426529	     12.90385537	    -17.23983916	     14.61333124	    -10.52741227	      8.09307379	      2.10405911	     28.72147232	    -21.57187609	     -5.13084191	     59.06175765	     44.90473339	      0.00000000	      0.00000000	     -4.04656001	     -7.47447744	      2.80856866	     27.79105148	     44.80405385	      0.00000000	      0.00000000
     20.33542857	     -6.24689608	     -3.89906358	      2.38827085	      0.79064779	      0.93022563	      0.53510329	     12.75110701	      3.00558014	    -16.74693674	     14.19449769	     14.19449769	     10.09790448	      1.12062260	     -5.84099456	     31.62781892	     -9.87348484	     -0.04365595	     33.40941558	     33.40941558	     11.89278393	    -17.02151931	     13.58861778	    -10.81372314	      7.99781383	      1.51965352	     30.16902985	    -21.22727776	     -5.24295757	     62.56282061	     44.81017318	      0.00000000	      0.00000000	     -5.44894297	     -7.46318719	      3.16433245	     28.14712966	     44.74299207	      0.00000000	      0.00000000
     20.34800000	     -6.38600213	     -3.91528957	      2.64783513	      0.78898901	      0.92993457	      0.53480977	     12.38683279	      3.05093309	    -16.88215375	     13.81830280	     13.81830280	     10.02314681	      1.06442883	     -6.78251762	     31.78838356	     -9.56442373	      0.07117530	     30.08202963	     30.08202963	     10.68136284	    -15.97471665	     11.10396873	    -10.81864531	      8.02233039	      2.06462743	     30.71776798	    -21.82229715	     -5.74921342	     65.79807238	     44.76453078	      0.00000000	      0.00000000	     -6.49667919	     -7.62438120	      3.99535253	     29.12108249	     44.65147343	      0.00000000	      0.00000000
     20.36057143	     -6.47329835	     -3.89731794	      2.91281703	      0.78730126	      0.92982736	      0.53438114	     12.00720985	      3.04805524	    -16.91269959	     13.54432534	     13.54432534	     10.22400624	      1.04216689	     -6.84823585	     32.01673776	     -9.19024902	      0.23574733	     27.21554939	     27.21554939	     10.41861898	    -14.43616082	     11.30213408	    -10.84451294	      8.05811967	      2.10066536	     32.25354456	    -21.69527170	     -5.97131528	     67.02009445	     44.74569380	      0.00000000	      0.00000000	     -7.30044980	     -7.62756579	      4.19541134	     28.80716948	     44.62012037	      0.00000000	      0.00000000
     20.37314286	     -6.59094549	     -4.00345984	      3.17640179	      0.78578536	      0.92957448	      0.53401041	     11.62957922	      3.18528005	    -17.16149996	     13.21868671	     13.21868671	     10.39988598	      1.08222781	     -6.92052342	     32.29585227	     -8.96046665	      0.30883214	     24.59022073	     24.59022073	     10.22643586	    -12.79355746	     11.30417580	    -10.79195746	      8.12258161	      1.96272356	     33.76207875	    -21.44849180	     -6.22918613	     68.67548773	     44.71388871	      0.00000000	      0.00000000	     -8.11801593	     -7.59435588	      4.37697019	     28.65420531	     44.59168974	      0.00000000	      0.00000000
     20.38571429	     -6.66005059	     -4.11487707	      3.44659574	      0.78438195	      0.92937132	      0.53355645	     11.16714831	      3.32583037	    -17.39263575	     12.84319281	     12.84319281	     10.57301249	      1.25370654	     -6.99753132	     32.56912956	     -8.76735642	      0.20844982	     22.30162387	     22.30162387	      9.90420073	    -10.94525622	     11.06891759	    -10.82981748	      8.24447650	      1.82709539	     35.05361567	    -21.06886103	     -6.55810363	     70.82273888	     44.67155685	      0.00000000	      0.00000000	     -8.97499478	     -7.59840971	      4.55460074	     28.74830884	     44.56864814	      0.00000000	      0.00000000
     20.39828571	     -6.74023976	     -4.18698265	      3.68818208	      0.78314774	      0.92917486	      0.53304860	     10.72177532	      3.42417780	    -17.57377546	     12.50601722	     12.50601722	     10.75511430	      1.38751907	     -7.03649247	     32.81474966	     -8.53979961	     -0.02748081	     20.28330841	     20.28330841	      9.54539809	     -9.31218020	     11.00808633	    -10.79840644	      8.28495861	      1.80320572	     36.19208216	    -20.74975307	     -6.83716958	     72.65515565	     44.63509919	      0.00000000	      0.00000000	     -9.71869350	     -7.63611212	      4.66097539	     28.81107353	     44.55487860	      0.00000000	      0.00000000
     20.41085714	     -6.77879749	     -4.34695959	      3.90032841	      0.78213946	      0.92889459	      0.53257610	     10.19047623	      3.62577252	    -17.82593202	     12.11009776	     12.11009776	     10.92305861	      1.72585679	     -7.09503140	     33.10321143	     -8.46007565	     -0.42913970	     18.75205163	     18.75205163	      8.99769290	     -7.76449804	     10.17483508	    -10.86121124	      8.42873335	      2.16783574	     36.65805521	    -20.67681172	     -7.71788710	     75.86392387	     44.60538345	      0.00000000	      0.00000000	    -10.42487262	     -7.76358853	      4.97029696	     29.57266699	     44.55907880	      0.00000000	      0.00000000
     20.42342857	     -6.94172724	     -4.50082550	      4.07933727	      0.78115333	      0.92842895	      0.53200856	      9.87263851	      3.80274382	    -17.95253392	     11.87119753	     11.87119753	     11.12174273	      1.77021740	     -7.11606762	     33.52742318	     -8.30417448	     -0.62337368	     17.61488122	     17.61488122	      8.62458619	     -7.00341616	     10.39624307	    -10.65492175	      8.53147914	      2.30214399	     37.90303733	    -20.56545970	     -7.84586924	     76.78017003	     44.58877937	      0.00000000	      0.00000000	    -10.85076294	     -7.74248294	      5.03098248	     29.42476483	     44.54976456	      0.00000000	      0.00000000
     20.43600000	     -6.80982881	     -4.56728176	      4.25930385	      0.78080750	      0.92846247	      0.53139329	      8.96776825	      3.96393605	    -18.17221292	     11.21136950	     11.21136950	     11.29330042	      2.26387475	     -7.04271332	     33.48877246	     -8.16683851	     -1.21088876	     16.71599310	     16.71599310	      8.33847430	     -6.04765770	     10.32036923	    -10.76764522	      8.57073027	      1.97774584	     38.73669749	    -19.59837200	     -8.00922133	     79.13346720	     44.53686575	      0.00000000	      0.00000000	    -11.54102558	     -7.75352179	      5.15479761	     29.39213140	     44.54574071	      0.00000000	      0.00000000
     20.44857143	     -6.77077787	     -4.69530016	      4.37609887	      0.78056474	      0.92820852	      0.53080743	      8.25515386	      4.16728030	    -18.34340408	     10.73502892	     10.73502892	     11.50008818	      2.66297258	     -7.00712629	     33.55321046	     -8.09981678	     -1.70284813	     16.22356709	     16.22356709	      8.02240798	     -5.66701021	     10.27192415	    -10.74158015	      8.62838510	      2.02748122	     39.44271035	    -19.13640644	     -8.21599744	     80.90651971	     44.50379424	      0.00000000	      0.00000000	    -12.00801353	     -7.77882644	      5.20478021	     29.46913470	     44.55296327	      0.00000000	      0.00000000
